<svg xmlns="http://www.w3.org/2000/svg" width="24" height="24" viewBox="0 0 24 24">
    <path fill="#4AD9BD" fill-rule="nonzero" d="M18.856 17.005c1.634 0 2.963 1.345 2.963 2.998 0 1.652-1.33 2.997-2.963 2.997-1.634 0-2.963-1.345-2.963-2.997 0-1.653 1.329-2.998 2.963-2.998zm0 4.197c.653 0 1.185-.538 1.185-1.2 0-.66-.532-1.198-1.185-1.198-.654 0-1.185.538-1.185 1.199 0 .66.531 1.199 1.185 1.199zM24 5.076l-2.602 10.64H6.24L3.16 2.798H0V1h4.587l.94 4.076H24zm-3.943 8.842l1.722-7.043H5.952l1.664 7.043h12.44zM8.1 17.005c1.634 0 2.963 1.345 2.963 2.998C11.063 21.655 9.733 23 8.1 23c-1.634 0-2.963-1.345-2.963-2.997 0-1.653 1.33-2.998 2.963-2.998zm0 4.197c.654 0 1.185-.538 1.185-1.2 0-.66-.531-1.198-1.185-1.198s-1.185.538-1.185 1.199c0 .66.531 1.199 1.185 1.199z"/>
</svg>
