<svg xmlns="http://www.w3.org/2000/svg" width="30" height="17" viewBox="0 0 30 17">
    <path fill="#4C75A3" fill-rule="evenodd" d="M29.52 1.204c.237.649-.533 2.14-2.308 4.471-.246.325-.58.756-1 1.293-.41.517-.693.882-.847 1.095-.154.213-.31.464-.47.753-.158.289-.22.502-.184.639.036.137.102.312.2.525.097.213.264.43.5.654.236.223.529.491.877.806.042.02.067.04.077.06 1.447 1.329 2.427 2.45 2.94 3.362.031.05.064.114.1.19.036.076.072.21.108.403a1.16 1.16 0 0 1-.008.517c-.04.152-.169.292-.385.418-.215.127-.518.19-.908.19l-3.94.061c-.246.051-.533.026-.862-.076a3.77 3.77 0 0 1-.8-.334l-.308-.183c-.308-.213-.667-.537-1.077-.973a27.22 27.22 0 0 1-1.055-1.179 5.074 5.074 0 0 0-.938-.882c-.334-.238-.624-.317-.87-.236-.03.01-.072.028-.123.053a1.339 1.339 0 0 0-.262.22 1.935 1.935 0 0 0-.33.45c-.098.177-.185.44-.262.79-.077.35-.11.743-.1 1.18 0 .151-.018.29-.054.417a1.02 1.02 0 0 1-.116.282l-.061.076c-.185.193-.457.304-.816.334h-1.77a7.074 7.074 0 0 1-2.247-.25 8.649 8.649 0 0 1-2.024-.807c-.58-.33-1.108-.664-1.586-1.003-.477-.34-.838-.632-1.085-.875l-.384-.365a10.06 10.06 0 0 1-.424-.456c-.18-.203-.546-.664-1.1-1.384a38.022 38.022 0 0 1-1.632-2.297c-.533-.811-1.162-1.88-1.885-3.21A49.948 49.948 0 0 1 .092 1.798 1.2 1.2 0 0 1 0 1.387c0-.112.015-.193.046-.244l.062-.091C.262.859.554.762.985.762l4.217-.03c.123.02.241.053.354.1.113.045.195.088.247.128l.077.046c.164.112.287.274.369.487.205.507.441 1.031.708 1.574.267.542.477.956.631 1.24l.246.44c.298.609.585 1.136.862 1.582.277.446.526.794.747 1.042.22.249.433.444.638.586.206.142.38.213.524.213.143 0 .282-.026.415-.076a.263.263 0 0 0 .077-.076c.031-.041.093-.153.185-.335a2.44 2.44 0 0 0 .208-.715c.046-.294.095-.705.146-1.232.051-.527.051-1.16 0-1.901a6.989 6.989 0 0 0-.139-1.11c-.071-.335-.143-.568-.215-.7l-.092-.182c-.257-.345-.693-.563-1.309-.654-.133-.02-.107-.142.077-.366a1.82 1.82 0 0 1 .585-.456c.544-.263 1.77-.385 3.679-.365.841.01 1.534.076 2.077.198.206.05.378.119.516.205a.819.819 0 0 1 .316.365c.071.157.125.32.161.487.036.167.054.398.054.692 0 .294-.005.573-.015.837l-.039 1.072c-.015.451-.023.87-.023 1.255 0 .111-.005.324-.015.638-.01.315-.013.558-.008.73.005.173.023.378.054.616.03.239.09.436.177.594.087.157.203.28.346.372l.262.061c.092.02.226-.035.4-.167.174-.132.37-.307.585-.525.215-.218.482-.558.8-1.019.318-.461.667-1.006 1.047-1.635a24.69 24.69 0 0 0 1.647-3.422 1.04 1.04 0 0 1 .154-.266.685.685 0 0 1 .169-.16l.062-.046.077-.038a.825.825 0 0 1 .2-.045c.102-.016.205-.018.307-.008l4.433-.03c.4-.051.729-.038.985.038.257.076.416.16.477.25l.093.153z"/>
</svg>
