<svg xmlns="http://www.w3.org/2000/svg" width="20" height="20" viewBox="0 0 20 20">
    <path fill="#C6CDD7" fill-rule="evenodd" d="M13.077 17.5c.167 0 .31-.062.433-.186a.605.605 0 0 0 .182-.439v-7.5c0-.17-.06-.316-.182-.44a.587.587 0 0 0-.433-.185.587.587 0 0 0-.433.186.605.605 0 0 0-.182.439v7.5c0 .17.06.316.182.44a.587.587 0 0 0 .433.185zm-6.154 0c.167 0 .311-.062.433-.186a.605.605 0 0 0 .182-.439v-7.5c0-.17-.06-.316-.182-.44a.587.587 0 0 0-.433-.185.587.587 0 0 0-.433.186.605.605 0 0 0-.182.439v7.5c0 .17.06.316.182.44a.587.587 0 0 0 .433.185zm9.846-15h-3.692V1.25a1.21 1.21 0 0 0-.365-.879A1.174 1.174 0 0 0 11.846 0H8.154c-.333 0-.622.124-.866.371a1.21 1.21 0 0 0-.365.879V2.5H3.231c-.334 0-.622.124-.866.371A1.21 1.21 0 0 0 2 3.75V5c0 .339.122.632.365.879.244.247.532.371.866.371V17.5c0 .69.24 1.28.72 1.768.482.488 1.062.732 1.741.732h8.616c.68 0 1.26-.244 1.74-.732.48-.489.721-1.078.721-1.768V6.25c.334 0 .622-.124.866-.371A1.21 1.21 0 0 0 18 5V3.75a1.21 1.21 0 0 0-.365-.879 1.174 1.174 0 0 0-.866-.371zm-8.615-.625c0-.17.06-.316.183-.44a.587.587 0 0 1 .432-.185h2.462c.166 0 .31.062.432.186.122.123.183.27.183.439V2.5H8.154v-.625zM15.538 17.5c0 .339-.121.632-.365.879a1.174 1.174 0 0 1-.865.371H5.692c-.333 0-.621-.124-.865-.371a1.21 1.21 0 0 1-.365-.879V6.25h11.076V17.5zM16.154 5H3.846a.587.587 0 0 1-.433-.186.605.605 0 0 1-.182-.439c0-.17.06-.316.182-.44a.587.587 0 0 1 .433-.185h12.308c.167 0 .31.062.433.186.121.123.182.27.182.439 0 .17-.06.316-.182.44a.587.587 0 0 1-.433.185zM10 17.5c.167 0 .31-.062.433-.186a.605.605 0 0 0 .182-.439v-7.5c0-.17-.06-.316-.182-.44A.587.587 0 0 0 10 8.75a.587.587 0 0 0-.433.186.605.605 0 0 0-.182.439v7.5c0 .17.06.316.182.44A.587.587 0 0 0 10 17.5z"/>
</svg>
