<svg xmlns="http://www.w3.org/2000/svg" width="20" height="20" viewBox="0 0 20 20">
    <path fill="#FF8282" fill-rule="evenodd" d="M3.23 17.5c0 .69.241 1.28.722 1.768.48.488 1.06.732 1.74.732h8.616c.68 0 1.26-.244 1.74-.732.48-.489.721-1.078.721-1.768v-10H3.231v10zm9.232-8.125c0-.17.06-.316.182-.44a.587.587 0 0 1 .433-.185c.167 0 .31.062.433.186.121.123.182.27.182.439v7.5c0 .17-.06.316-.182.44a.587.587 0 0 1-.433.185.587.587 0 0 1-.433-.186.605.605 0 0 1-.182-.439v-7.5zm-3.077 0c0-.17.06-.316.182-.44A.587.587 0 0 1 10 8.75c.167 0 .31.062.433.186.121.123.182.27.182.439v7.5c0 .17-.06.316-.182.44A.587.587 0 0 1 10 17.5a.587.587 0 0 1-.433-.186.605.605 0 0 1-.182-.439v-7.5zm-3.077 0c0-.17.06-.316.182-.44a.587.587 0 0 1 .433-.185c.167 0 .311.062.433.186.122.123.182.27.182.439v7.5c0 .17-.06.316-.182.44a.587.587 0 0 1-.433.185.587.587 0 0 1-.433-.186.605.605 0 0 1-.182-.439v-7.5zM16.769 2.5h-3.692V1.25a1.21 1.21 0 0 0-.365-.879A1.174 1.174 0 0 0 11.846 0H8.154c-.333 0-.622.124-.866.371a1.21 1.21 0 0 0-.365.879V2.5H3.231c-.334 0-.622.124-.866.371A1.21 1.21 0 0 0 2 3.75V5c0 .339.119.632.356.879s.529.371.875.371h13.538c.346 0 .638-.124.875-.371S18 5.339 18 5V3.75a1.21 1.21 0 0 0-.365-.879 1.174 1.174 0 0 0-.866-.371zm-4.923 0H8.154v-.625c0-.17.06-.316.183-.44a.587.587 0 0 1 .432-.185h2.462c.166 0 .31.062.432.186.122.123.183.27.183.439V2.5z"/>
</svg>
