<svg xmlns="http://www.w3.org/2000/svg" width="25" height="20" viewBox="0 0 25 20">
    <path fill="#55ACEE" fill-rule="evenodd" d="M22.148 4.979c.011.216.015.436.015.652C22.163 12.306 17.071 20 7.76 20 4.9 20 2.24 19.164 0 17.73c.397.047.8.071 1.207.071 2.374 0 4.555-.808 6.287-2.16a5.066 5.066 0 0 1-4.729-3.506 5.187 5.187 0 0 0 2.287-.087A5.058 5.058 0 0 1 .99 7.095v-.063a5.06 5.06 0 0 0 2.293.633A5.046 5.046 0 0 1 1.718.922a14.382 14.382 0 0 0 10.434 5.277A5.053 5.053 0 0 1 17.082 0a5.06 5.06 0 0 1 3.697 1.593A10.21 10.21 0 0 0 23.993.368a5.07 5.07 0 0 1-2.226 2.793 10.146 10.146 0 0 0 2.908-.795 10.209 10.209 0 0 1-2.527 2.613z"/>
</svg>
