<svg xmlns="http://www.w3.org/2000/svg" width="20" height="20" viewBox="0 0 20 20">
    <path fill="#C6CDD7" fill-rule="evenodd" d="M13.333 10c0-.587-.15-1.138-.453-1.653a3.382 3.382 0 0 0-1.227-1.227A3.216 3.216 0 0 0 10 6.667v-2.24c1.013 0 1.947.249 2.8.746A5.54 5.54 0 0 1 14.827 7.2c.497.853.746 1.787.746 2.8h-2.24zm4.427 0c0-1.422-.347-2.729-1.04-3.92a7.827 7.827 0 0 0-2.8-2.8c-1.191-.693-2.498-1.04-3.92-1.04V0c1.813 0 3.493.453 5.04 1.36a9.984 9.984 0 0 1 3.6 3.6A9.791 9.791 0 0 1 20 10h-2.24zm1.147 3.893c.302 0 .56.107.773.32.213.214.32.471.32.774v3.92c0 .302-.107.56-.32.773-.213.213-.471.32-.773.32-2.56 0-5.014-.498-7.36-1.493a18.831 18.831 0 0 1-6-4.054 18.831 18.831 0 0 1-4.054-6A18.657 18.657 0 0 1 0 1.093C0 .791.107.533.32.32.533.107.791 0 1.093 0h3.92c.303 0 .56.107.774.32.213.213.32.471.32.773 0 1.458.204 2.774.613 3.947.053.196.062.4.027.613a.889.889 0 0 1-.294.534L4 8.64a16.751 16.751 0 0 0 3.093 4.24A17.108 17.108 0 0 0 11.36 16l2.453-2.453a.889.889 0 0 1 .534-.294c.213-.035.417-.026.613.027 1.173.409 2.489.613 3.947.613z"/>
</svg>
