<svg xmlns="http://www.w3.org/2000/svg" xmlns:xlink="http://www.w3.org/1999/xlink" width="20" height="20" viewBox="0 0 20 20">
    <defs>
        <path id="a" d="M19.474 3.447c.248.633.418 1.36.464 2.426C19.992 6.94 20 7.28 20 10c0 2.72-.015 3.06-.062 4.127-.046 1.058-.216 1.793-.464 2.426a4.887 4.887 0 0 1-1.151 1.77 4.887 4.887 0 0 1-1.77 1.151c-.633.248-1.36.418-2.426.464C13.06 19.992 12.72 20 10 20c-2.72 0-3.06-.015-4.127-.062-1.058-.046-1.793-.216-2.426-.464a4.887 4.887 0 0 1-1.77-1.151 4.887 4.887 0 0 1-1.151-1.77c-.248-.633-.418-1.36-.464-2.426C.008 13.06 0 12.72 0 10c0-2.72.015-3.06.062-4.127.046-1.058.216-1.793.464-2.426a4.887 4.887 0 0 1 1.151-1.77A4.887 4.887 0 0 1 3.447.526C4.08.278 4.807.108 5.873.062 6.94.008 7.28 0 10 0c2.72 0 3.06.015 4.127.062 1.058.046 1.793.216 2.426.464a4.887 4.887 0 0 1 1.77 1.151 4.887 4.887 0 0 1 1.151 1.77zm-2.03 10.247c.042-.96.056-1.258.056-3.694s-.014-2.726-.056-3.694c-.043-.89-.191-1.37-.318-1.694a2.86 2.86 0 0 0-.685-1.053 2.83 2.83 0 0 0-1.053-.685c-.317-.127-.805-.275-1.694-.318-.96-.049-1.258-.056-3.694-.056s-2.726.014-3.694.056c-.89.043-1.37.191-1.694.318a2.86 2.86 0 0 0-1.053.685 2.83 2.83 0 0 0-.685 1.053c-.127.317-.275.805-.318 1.694C2.507 7.266 2.5 7.564 2.5 10s.014 2.726.056 3.694c.043.89.191 1.37.318 1.694.17.431.368.735.685 1.053a2.83 2.83 0 0 0 1.053.685c.317.127.805.275 1.694.318.96.049 1.25.056 3.694.056s2.726-.014 3.694-.056c.89-.043 1.37-.191 1.694-.318a2.86 2.86 0 0 0 1.053-.685 2.83 2.83 0 0 0 .685-1.053c.127-.317.275-.805.318-1.694zM15 6.25a1.25 1.25 0 1 1 0-2.5 1.25 1.25 0 0 1 0 2.5zM10 5c2.76 0 5 2.24 5 5s-2.24 5-5 5-5-2.24-5-5 2.24-5 5-5zm0 7.5c1.377 0 2.5-1.123 2.5-2.5a2.5 2.5 0 1 0-2.5 2.5z"/>
    </defs>
    <use fill="#E4405F" fill-rule="evenodd" xlink:href="#a"/>
</svg>
