<svg xmlns="http://www.w3.org/2000/svg" width="47" height="31" viewBox="0 0 47 31">
    <g fill="none" fill-rule="nonzero">
        <path fill="#E2574C" d="M29.32 14.983c0 8.212-6.563 14.866-14.66 14.866C6.562 29.849 0 23.193 0 14.983S6.564.117 14.66.117s14.66 6.655 14.66 14.866z"/>
        <path fill="#F4B459" d="M32.266.117c-3.288 0-6.315 1.11-8.76 2.965l.011.001c.481.471 1.012.803 1.42 1.345l-3.05.05c-.477.488-.913 1.02-1.323 1.574h5.378c.41.498.788.93 1.131 1.48h-7.485c-.274.479-.527.971-.749 1.482h9.086c.238.51.45.895.63 1.435H18.302a14.475 14.475 0 0 0-.408 1.573h11.092c.109.514.192.99.25 1.474H17.673c-.048.49-.073.986-.073 1.487h11.718c0 .526-.037 1.014-.09 1.487H17.674c.05.504.123.999.22 1.486h11.075c-.115.482-.247.966-.412 1.469H18.267c.156.508.345 1.002.552 1.484h9.106c-.252.54-.538.973-.853 1.48h-7.51c.296.52.623 1.017.978 1.493l5.402.081c-.46.56-1.05.898-1.59 1.389.03.024-.86-.003-2.612-.031 2.666 2.789 6.392 4.528 10.525 4.528 8.1 0 14.665-6.656 14.665-14.866S40.366.117 32.266.117z"/>
    </g>
</svg>
