<svg xmlns="http://www.w3.org/2000/svg" width="79" height="24" viewBox="0 0 79 24">
    <defs>
        <linearGradient id="a" x1=".008%" y1="50%" y2="50%">
            <stop offset="30%" stop-color="#00B4E6"/>
            <stop offset="100%" stop-color="#088CCB"/>
        </linearGradient>
    </defs>
    <g fill="none" fill-rule="nonzero">
        <path fill="#4DB45E" d="M21.537 0h6.993v23.077h-6.993V9.382h-.582l-4.08 13.695H12.02L7.94 9.372h-.582v13.705H.365V0h6.993s3.069-.01 3.884 3.023c.758 2.832 2.914 10.682 2.914 10.682h.583c.058-.212 2.166-7.89 2.913-10.672C18.468 0 21.528.01 21.537.01V0zm25.12 0h6.445v23.077H46.28V9.372h-.57l-4.738 11.286c-.938 2.217-3.032 2.419-3.032 2.419h-6.445V0h6.824v13.705h.568L43.72 2.42C44.658.19 46.658 0 46.658 0zM56.86 10.385H78.04c-1.014 3.076-3.743 5.28-6.965 5.28h-7.393v7.412H56.86V10.385z"/>
        <path fill="url(#a)" d="M70.873 0H55.428a11.116 11.116 0 0 0 8.007 8.707c.926.251 1.9.387 2.904.387h11.904a7.455 7.455 0 0 0 .155-1.548C78.398 3.376 75.03 0 70.873 0z" transform="translate(.365)"/>
    </g>
</svg>
