<svg xmlns="http://www.w3.org/2000/svg" width="72" height="24" viewBox="0 0 72 24">
    <path fill="#1359AF" fill-rule="nonzero" d="M37.353 7.378C37.385 3.034 41.402 0 47.111 0c2.226 0 4.014.485 5.405.991l-1.015 4.732c-2.587-1.19-4.868-1.107-5.695-.998-1.67.217-2.432 1.069-2.451 1.867-.056 2.633 8.118 2.96 8.094 8.85-.021 4.641-3.99 7.635-10.056 7.635-2.584-.024-5.076-.564-6.422-1.185l1.045-4.89c1.342.627 3.029 1.455 5.93 1.41 1.664-.026 3.442-.687 3.459-2.185.008-.978-.747-1.68-2.997-2.774-2.19-1.067-5.096-2.86-5.055-6.075zM62.272.408h4.932l4.663 22.321h-5.343l-.7-3.332h-7.407l-1.207 3.332H51.15l8.665-20.684A2.632 2.632 0 0 1 62.272.408zm.848 6.03l-3.042 8.382h4.791l-1.75-8.382zM30.004.408h5.774l-4.776 22.321h-5.776L30.004.408zm-8.545 0h6.066l-9.36 22.321h-6.104L7.455 4.916c-.28-1.096-.522-1.5-1.372-1.961C4.694 2.2 2.402 1.494.384 1.055L.522.409h9.828c1.252 0 2.379.832 2.664 2.274l2.432 12.919L21.46.408z"/>
</svg>
