<svg xmlns="http://www.w3.org/2000/svg" width="170" height="40" viewBox="0 0 170 40">
    <g fill="none" fill-rule="evenodd">
        <path fill="#4AD9BD" d="M18.881 26.806h.195v.186a9.472 9.472 0 0 1-.028.507l-.015.156-.01.105a8.295 8.295 0 0 1-.4 1.772 8.518 8.518 0 0 1-2.405 3.611l-.176.157-.13.05h-6.74c-.063 0-.122.003-.18.01l-.592.079 1.714-1.64.135-.055h5.111a6.84 6.84 0 0 0 1.68-2.593c.037-.1.071-.197.138-.35.005-.03-.006.005-.032.08.048.14.048.14.057.137l-.05-.196a6.496 6.496 0 0 0 .266-1.26 7.02 7.02 0 0 0 .021-1.283 7.827 7.827 0 0 0-.056-.492 5.476 5.476 0 0 0-.034-.198 2.866 2.866 0 0 0-.03-.164 2.088 2.088 0 0 0-.039-.168 4.704 4.704 0 0 0-.132-.486 6.03 6.03 0 0 0-.12-.35 6.934 6.934 0 0 0-6.683-4.457c-.34.004-.648.034-.945.084L9.236 20a72.26 72.26 0 0 1-1.079-1.005l-.248-.238.331-.091c.175-.049.35-.092.524-.129l-.034-.038.378-.039.24-.025a8.54 8.54 0 0 1 8.963 4.872l.028.062c.074.163.14.32.21.54l-.014-.068a7.331 7.331 0 0 1 .217.653 7.51 7.51 0 0 1 .191.819 7.11 7.11 0 0 1 .09.63c.029.283.043.572.043.864h-.195zm-4.412 3.27h.196v.581h-1.616v-.581l-.002-.136-.002-.052c.015.008.03.038.055.08l-.047-.103.047-.169c-.043.076-.061.11-.056.149l-.007-.088-.006-.09c-.006-.067-.006-.067-.009-.085l-.012-.103a3.62 3.62 0 0 0-.036-.242 4.354 4.354 0 0 0-.044-.226l-.015-.068-.016-.062-.018-.07-.017-.067a2.164 2.164 0 0 0-.038-.13 1.91 1.91 0 0 0-.045-.14 5.68 5.68 0 0 0-.193-.507c-.015-.038-.015-.038-.034-.08-.055-.12-.077-.167-.094-.2l-.033-.07a2.32 2.32 0 0 0-.047-.092 2.945 2.945 0 0 0-.06-.115l-.023-.042a5.594 5.594 0 0 0-.163-.286 11.151 11.151 0 0 0-.683-1.006c-.81-1.064-1.716-1.973-3.524-3.632l-.253-.231c-.03-.03-.03-.03-.062-.058l-.131-.12-.262-.24c-1.49-1.368-2.32-2.208-2.987-3.093a22.044 22.044 0 0 1-1.195-1.724l-.55-.885.045.014a15.892 15.892 0 0 1-.22-.42l-.197-.39.423.114c.071.02.143.04.217.063.234.073.379.125.874.31.23.089.45.17.672.248l.101.08c.32.515.685 1.047 1.102 1.597.14.182.282.36.429.53.29.335.62.684.993 1.055.269.268.558.545.936.897a162.048 162.048 0 0 0 1.131 1.041l.114.103c1.979 1.82 3.033 2.908 3.937 4.2a11.476 11.476 0 0 1 .47.725l.063.109.062.108c.041.07.081.144.123.225.052.096.102.194.154.302l.045.094.041.09a7.189 7.189 0 0 1 .196.466l.037.096.022.064.021.057.042.125.03.094c.033.102.056.18.084.285l.012.046.018.07c.013.046.024.094.036.15l.028.127a7.607 7.607 0 0 1 .069.384l.01.083c.008.058.008.058.007.063l.014.106.014.13.013.191c.004.063.006.125.007.187l.003.164h-.196zm3.146-25.064c.178-.09.326-.207.449-.351l.125-.148 1.141.958-.127.15c-.176.205-.38.384-.636.551l-2.446 2.34-.133-.168a5.227 5.227 0 0 0-.739-.756l-.167-.14.844-.808a3.039 3.039 0 0 1-1.485-.936 3.048 3.048 0 0 1-1.895-.411l-.001 1.103-.214-.021a5.67 5.67 0 0 0-1.064.008l-.216.021v-.216l.003-3.422v-.419l.025-.032.18.008.555.025h.733v.23a1.488 1.488 0 0 0 .06.486l.073.18.026.068.015.027.022.042.11.195c.164.253.407.448.697.56.066.027.134.048.203.065a2.955 2.955 0 0 1 .18-1.526A2.98 2.98 0 0 1 15.842.919l.57-.176.078.135.22.38a2.94 2.94 0 0 1 .185 2.58 2.947 2.947 0 0 1-.916 1.232 1.512 1.512 0 0 0 1.225.117l-.004-.028.17-.044.037-.014a.21.21 0 0 1 .05.004c.063-.046.113-.068.16-.093zm-2.554-.871a1.652 1.652 0 0 0 .624-.772l.005-.013c.128-.32.152-.663.077-.99a1.688 1.688 0 0 0-.623.776l-.006.014a1.656 1.656 0 0 0-.077.985zm18.157 16.11h.196c0 .095-.002.18-.005.257a12.119 12.119 0 0 1-.04.705 10.556 10.556 0 0 1-.126.928l-.024.128-.027.13a8.551 8.551 0 0 1-.132.558 8.218 8.218 0 0 1-.247.803c-.28.798-.657 1.559-1.111 2.248a.498.498 0 0 1-.03.05c-.012.017-.36.542-1.042 1.577l-.103-.442-.324-1.385-.04-.169-.021-.085-.02-.083a25.488 25.488 0 0 0-.081-.3c-.11-.4-.21-.734-.318-1.051l-.08-.27c-.043-.092-.09-.22-.134-.339l-.04-.103-.04-.102-.06-.153-.046-.115a11.889 11.889 0 0 0-.123-.293 17.083 17.083 0 0 0-.606-1.285l-.03-.056c-.283-.54-.588-1.059-.915-1.555-.19-.295-.354-.535-.518-.76l-.03-.167c.134-.48.305-.943.516-1.388l.135-.285.195.247c.124.158.248.32.371.486l.143.184.156.23.186.274a20.662 20.662 0 0 1 .895 1.44c.107.19.198.36.305.61l-.023-.09c.053.101.104.2.178.347l.03.059a13.505 13.505 0 0 1 .265.556c.039.08.072.153.1.22l.032.07.03.07c.049.109.094.213.134.308a.529.529 0 0 1 .03.111l-.015-.075c.11.262.216.533.315.808.044.117.085.234.126.349a8.861 8.861 0 0 0 .542-2.253 8.975 8.975 0 0 0-.061-2.366c-.01-.05-.01-.05-.017-.098l-.016-.093-.017-.09-.018-.087a8.524 8.524 0 0 0-.252-.961 8.965 8.965 0 0 0-2.288-3.686 10.291 10.291 0 0 0-2.335 3.05 10.178 10.178 0 0 0-.64 1.617 8.371 8.371 0 0 0-.143.54 6.118 6.118 0 0 0-.065.297 5.542 5.542 0 0 0-.04.204l-.014.078a10.055 10.055 0 0 0-.095.705l-.008.077-.007.08a6.92 6.92 0 0 0-.02.294 4.715 4.715 0 0 0-.011.235l-.003.112-.002.078a7.094 7.094 0 0 0 0 .294l.003.139c.004.165.013.332.027.504a12.278 12.278 0 0 0 2.75 7.264 12 12 0 0 0 .498.578c.67.726 1.423 1.371 2.235 1.917l2.187 1.467H18.639a1.31 1.31 0 0 0-.198.015l-.612.094 1.733-1.66.136-.054h8.772a13.966 13.966 0 0 1-.69-.699 13.874 13.874 0 0 1-3.668-8.805 8.745 8.745 0 0 1-.013-.193l-.008-.143a8.034 8.034 0 0 1-.01-.284 7.026 7.026 0 0 1-.004-.277c0-.152.002-.245.006-.34a7.803 7.803 0 0 1 .017-.368c.001-.045.001-.045.003-.065.008-.119.012-.176.018-.238a10.946 10.946 0 0 1 .19-1.329c.02-.1.043-.204.072-.33.032-.13.042-.171.054-.21.014-.063.027-.111.058-.219.014-.055.028-.105.055-.195l.026-.086c.016-.058.035-.118.056-.18l.024-.073a11.615 11.615 0 0 1 .639-1.552 11.793 11.793 0 0 1 3.289-4.02l.534-.42.122.101.382.32a10.632 10.632 0 0 1 3.54 5.813l.018.092.04.188.017.094.02.117.013.072a11.021 11.021 0 0 1 .108.865l.007.093c.008.119.01.15.012.202.004.06.006.111.01.224l.004.114.003.178c0 .02-.065.04-.196.06zm-8.336-5.889l.133.11-.092.145c-.218.344-.417.698-.598 1.061l-.11.224-.191-.162a18.704 18.704 0 0 0-.449-.367l-.109-.083-.208-.16a19.074 19.074 0 0 0-8.29-3.623l-.161-.028a4.002 4.002 0 0 0-.285-.049l-.167-.024v-.157a2.635 2.635 0 0 0-.518-1.192 2.692 2.692 0 0 0-2.139-1.05c-1.327 0-2.452.96-2.657 2.241l-.022.153-.145.02c-.424.06-.838.134-1.24.221-.823.176-1.633.405-2.492.7-.094.044-.255.103-.422.168-.257.1-.514.206-.783.324a6.28 6.28 0 0 0-.282.121c.155.05.316.105.49.169.129.045.244.088.444.165l.237.088c1.122.418 1.838.58 2.92.58 1.085 0 1.992-.2 2.658-.58a2.515 2.515 0 0 1-.517-1.281c-.007-.04-.007-.04-.01-.07a3.254 3.254 0 0 1-.016-.262 2.249 2.249 0 0 1-.001-.202l.01-.102a1.727 1.727 0 0 1 1.724-1.546 1.722 1.722 0 0 1 1.727 1.681c.004.065.006.134.006.222 0 .699-.354 1.37-.927 1.988a4.607 4.607 0 0 1-.285.29l-.124.113-.092.08c-.026.022-.048.04-.093.075l-.047.038-.052.04-.095.07c-.063.045-.13.09-.184.121-.016.013-.023.019-.045.027-.11.074-.215.135-.317.186l-.063.034a2.19 2.19 0 0 1-.162.078c-.113.053-.23.103-.305.124a.188.188 0 0 1-.072.034 4.085 4.085 0 0 1-.233.082c-.188.065-.384.12-.586.164a8.378 8.378 0 0 1-1.9.202c-1.138 0-2.045-.176-3.072-.532-.192-.067-.35-.126-.656-.241-.21-.08-.311-.118-.348-.143l-.082-.017a25.862 25.862 0 0 1-1.436-.623 35.449 35.449 0 0 1-.552-.266c-.285-.142-.53-.27-.755-.406l.058.04a.78.78 0 0 1-.063-.042l-.006-.27.27-.279c.062-.064.108-.11.167-.168.17-.166.296-.28.402-.358a7.566 7.566 0 0 1 .672-.433l.047-.028c.124-.071.218-.122.328-.177.186-.097.365-.18.517-.238.033-.017.033-.017.056-.026a20.59 20.59 0 0 1 4.454-1.38 4.312 4.312 0 0 1 3.952-2.574c1.741 0 3.29 1.039 3.962 2.596 3.38.66 6.565 2.168 9.222 4.364zm-13.595-2.788l-.007.105a1.755 1.755 0 0 0 .06.457c.05.174.132.319.247.438.183-.249.293-.483.32-.683a.55.55 0 0 0 .004-.074c0-.053 0-.105-.003-.152l-.001-.036c0-.014-.002-.025-.004-.037a.309.309 0 0 0-.31-.273.312.312 0 0 0-.298.214l-.008.04z"/>
        <path fill="#046D9D" d="M52.513 33.48h-1.578V17.55l-2.288-.056c-.528 0-.773-.372-.773-.717v-.717h3.06v-2.023c0-1.028.128-1.937.377-2.7.256-.786.62-1.447 1.084-1.967a4.435 4.435 0 0 1 1.69-1.185c.94-.373 2.037-.486 3.237-.274.417.075.778.19 1.073.343l.405.211-.147.582c-.115.35-.373.54-.683.54-.188 0-.425-.053-.77-.17-.145-.049-.441-.107-1.023-.107a4.25 4.25 0 0 0-1.477.249c-.43.16-.798.41-1.12.766-.325.357-.585.84-.773 1.433-.196.615-.294 1.382-.294 2.279v2.023h6.089v1.503h-6.09V33.48zm12.306 0h-1.578V15.333h.684c.485 0 .824.351.824.856l.021 1.927c.357-.595.77-1.11 1.233-1.537.539-.5 1.163-.883 1.851-1.14.683-.255 1.457-.384 2.3-.384a7.2 7.2 0 0 1 1.685.19 7.87 7.87 0 0 1 1.485.525l.537.252-.415.798a.7.7 0 0 1-.613.328c-.145 0-.305-.042-.52-.135a5.25 5.25 0 0 0-.468-.17 5.406 5.406 0 0 0-1.691-.25c-1.365 0-2.433.429-3.267 1.31-.858.91-1.555 2.227-2.068 3.919v11.66zm19.654-16.923c-1.08 0-2.03.188-2.824.561-.79.37-1.458.895-1.984 1.56-.536.676-.946 1.504-1.22 2.462-.28.979-.422 2.077-.422 3.266s.142 2.284.421 3.257c.274.95.684 1.768 1.218 2.432a5.444 5.444 0 0 0 1.984 1.538c.794.367 1.745.553 2.827.553 1.07 0 2.018-.186 2.818-.554a5.42 5.42 0 0 0 1.99-1.536c.537-.666.946-1.484 1.219-2.433.28-.971.42-2.066.42-3.257 0-1.19-.14-2.29-.42-3.266-.273-.956-.685-1.785-1.22-2.462a5.419 5.419 0 0 0-1.992-1.559c-.799-.373-1.747-.562-2.815-.562m0 17.132c-1.284 0-2.437-.224-3.43-.667a6.912 6.912 0 0 1-2.542-1.919c-.678-.82-1.197-1.812-1.542-2.949-.34-1.117-.512-2.378-.512-3.748 0-1.368.172-2.635.51-3.764.346-1.149.865-2.147 1.544-2.967a7.083 7.083 0 0 1 2.536-1.934c.995-.455 2.151-.687 3.436-.687 1.27 0 2.423.23 3.424.686a7.087 7.087 0 0 1 2.546 1.935c.678.82 1.198 1.817 1.544 2.967.34 1.131.512 2.397.512 3.764 0 1.368-.173 2.629-.512 3.748-.347 1.138-.866 2.13-1.543 2.95a6.923 6.923 0 0 1-2.553 1.92c-.999.44-2.15.665-3.418.665m19.31-17.132c-.75 0-1.433.11-2.026.328a4.253 4.253 0 0 0-1.486.907 3.96 3.96 0 0 0-.933 1.401 4.967 4.967 0 0 0-.333 1.85c0 .674.112 1.296.333 1.849a3.97 3.97 0 0 0 .933 1.401c.404.387.904.692 1.486.906.593.218 1.275.329 2.026.329.775 0 1.468-.11 2.062-.329a4.139 4.139 0 0 0 1.475-.904c.396-.383.704-.854.917-1.398a5.1 5.1 0 0 0 .325-1.854c0-.675-.112-1.297-.333-1.85a3.974 3.974 0 0 0-.933-1.402 4.258 4.258 0 0 0-1.487-.906c-.593-.218-1.275-.328-2.026-.328m-2.662 14.88c-.462.173-.894.37-1.285.584-.414.227-.77.49-1.058.783a3.334 3.334 0 0 0-.661.945c-.152.33-.226.689-.226 1.095 0 .487.127.93.386 1.356.268.44.658.831 1.157 1.163.518.344 1.165.622 1.924.825.772.204 1.659.31 2.635.31.858 0 1.694-.113 2.487-.335a7.556 7.556 0 0 0 2.085-.915 4.75 4.75 0 0 0 1.388-1.35 2.897 2.897 0 0 0 .488-1.643c0-.507-.117-.905-.347-1.185-.259-.314-.601-.555-1.046-.733a6.623 6.623 0 0 0-1.679-.404c-.672-.079-1.38-.139-2.103-.18a415.19 415.19 0 0 0-2.205-.111 15.864 15.864 0 0 1-1.94-.206M103.993 40c-1.196 0-2.273-.129-3.2-.385-.94-.259-1.749-.619-2.402-1.07-.675-.467-1.195-1.022-1.544-1.653a4.185 4.185 0 0 1-.533-2.048c0-1.118.387-2.095 1.15-2.9.444-.471.987-.879 1.62-1.218a3.378 3.378 0 0 1-.467-.353c-.512-.464-.772-1.119-.772-1.944 0-.301.063-.616.187-.937.115-.296.275-.592.474-.876a4.807 4.807 0 0 1 .931-.988 5.266 5.266 0 0 1-1.306-1.59c-.466-.866-.703-1.874-.703-2.995 0-.868.148-1.679.44-2.409a5.333 5.333 0 0 1 1.299-1.914 6 6 0 0 1 2.011-1.23c.77-.289 1.647-.436 2.605-.436.81 0 1.563.109 2.237.322.61.194 1.17.46 1.666.788h4.541v.648a.787.787 0 0 1-.306.625.88.88 0 0 1-.553.195l-2.183.044a5.6 5.6 0 0 1 .502.943c.3.727.453 1.542.453 2.424a6.39 6.39 0 0 1-.452 2.428 5.441 5.441 0 0 1-1.305 1.91 5.89 5.89 0 0 1-2.015 1.224c-.77.282-1.638.425-2.585.425-1.096 0-2.089-.19-2.957-.565a4.126 4.126 0 0 0-.458.34c-.21.18-.391.37-.539.566-.143.19-.257.385-.336.58-.07.173-.106.334-.106.478 0 .404.11.694.337.886.29.249.69.438 1.193.566.551.14 1.193.23 1.906.269.752.04 1.521.077 2.308.111.803.036 1.594.095 2.351.178.801.085 1.532.258 2.172.514.68.272 1.237.667 1.656 1.173.447.54.674 1.255.674 2.129 0 .78-.204 1.533-.607 2.236-.392.684-.947 1.298-1.652 1.824-.695.517-1.54.933-2.506 1.233-.963.3-2.048.452-3.226.452m19.23-23.443c-1.08 0-2.03.188-2.824.561-.79.37-1.457.895-1.983 1.56-.536.676-.947 1.504-1.221 2.462-.279.976-.42 2.076-.42 3.266s.141 2.286.42 3.257c.273.95.683 1.768 1.217 2.432a5.464 5.464 0 0 0 1.984 1.538c.794.367 1.745.553 2.827.553 1.07 0 2.018-.186 2.819-.554a5.429 5.429 0 0 0 1.991-1.537c.535-.665.945-1.483 1.218-2.432.278-.973.42-2.068.42-3.257 0-1.19-.142-2.287-.421-3.266-.273-.956-.683-1.785-1.22-2.462a5.425 5.425 0 0 0-1.99-1.559c-.8-.373-1.75-.562-2.817-.562m0 17.132c-1.282 0-2.436-.224-3.43-.667a6.925 6.925 0 0 1-2.542-1.919c-.677-.818-1.197-1.81-1.542-2.949-.34-1.117-.512-2.378-.512-3.748 0-1.368.172-2.635.51-3.764.347-1.15.866-2.148 1.544-2.967a7.097 7.097 0 0 1 2.536-1.934c.996-.455 2.151-.687 3.436-.687 1.271 0 2.424.23 3.424.686a7.08 7.08 0 0 1 2.547 1.935c.677.82 1.197 1.817 1.543 2.967.34 1.129.512 2.396.512 3.764 0 1.37-.172 2.631-.512 3.748-.347 1.138-.866 2.13-1.543 2.95a6.904 6.904 0 0 1-2.553 1.92c-.998.44-2.149.665-3.418.665m19.311-17.132c-.752 0-1.434.11-2.027.328a4.252 4.252 0 0 0-1.485.906 3.977 3.977 0 0 0-.934 1.402 4.99 4.99 0 0 0-.332 1.85c0 .674.112 1.296.332 1.849.217.545.532 1.016.934 1.401.403.387.903.692 1.485.906.593.218 1.275.329 2.027.329.774 0 1.467-.11 2.06-.329a4.154 4.154 0 0 0 1.477-.904c.395-.383.703-.856.916-1.398a5.11 5.11 0 0 0 .325-1.854c0-.674-.112-1.296-.333-1.85a3.974 3.974 0 0 0-.933-1.402 4.24 4.24 0 0 0-1.485-.906c-.595-.218-1.277-.328-2.027-.328m-2.663 14.88c-.46.172-.892.37-1.286.584-.412.227-.768.49-1.057.783a3.322 3.322 0 0 0-.66.945c-.152.33-.226.689-.226 1.095 0 .487.126.93.385 1.356.268.44.658.831 1.157 1.163.518.344 1.165.622 1.924.825.772.204 1.659.31 2.635.31.857 0 1.695-.113 2.488-.335a7.578 7.578 0 0 0 2.083-.915 4.73 4.73 0 0 0 1.39-1.35 2.905 2.905 0 0 0 .487-1.643c0-.514-.113-.902-.347-1.185-.259-.314-.601-.555-1.046-.733a6.623 6.623 0 0 0-1.679-.404c-.672-.079-1.38-.139-2.103-.18-.741-.039-1.477-.076-2.205-.111a15.864 15.864 0 0 1-1.94-.206M142.743 40c-1.196 0-2.273-.129-3.2-.385-.94-.259-1.749-.619-2.402-1.07-.675-.467-1.195-1.022-1.544-1.653a4.191 4.191 0 0 1-.533-2.048c0-1.118.387-2.095 1.15-2.9.444-.471.987-.879 1.62-1.218a3.349 3.349 0 0 1-.467-.353c-.512-.464-.771-1.117-.771-1.944a2.6 2.6 0 0 1 .186-.937 4.29 4.29 0 0 1 .473-.876c.2-.284.443-.557.723-.808.068-.063.138-.122.21-.18a5.276 5.276 0 0 1-1.306-1.59c-.467-.867-.704-1.875-.704-2.995 0-.868.148-1.678.442-2.409a5.303 5.303 0 0 1 1.298-1.914 5.982 5.982 0 0 1 2.01-1.23c.771-.289 1.648-.436 2.606-.436.81 0 1.562.109 2.237.322.61.194 1.17.46 1.666.788h4.54v.648a.785.785 0 0 1-.306.625.881.881 0 0 1-.553.195l-2.183.044c.197.296.364.611.502.944.3.725.453 1.54.453 2.423 0 .882-.153 1.699-.452 2.43a5.447 5.447 0 0 1-1.305 1.91 5.895 5.895 0 0 1-2.015 1.222c-.77.282-1.638.425-2.584.425-1.096 0-2.09-.19-2.958-.565a4.257 4.257 0 0 0-.458.34c-.21.178-.39.369-.54.566-.142.191-.256.386-.335.58-.07.172-.104.334-.104.478 0 .539.191.764.335.886.29.249.69.438 1.193.566.552.14 1.193.23 1.906.269.753.04 1.521.077 2.308.111.803.036 1.594.095 2.351.178.801.085 1.533.258 2.172.514.68.272 1.238.667 1.658 1.174.445.537.672 1.253.672 2.128 0 .78-.204 1.532-.606 2.236-.393.686-.95 1.298-1.653 1.824-.695.517-1.538.932-2.506 1.233-.962.3-2.048.452-3.226.452m19.23-23.443c-1.08 0-2.03.188-2.824.561-.789.37-1.457.895-1.983 1.56-.536.677-.946 1.504-1.22 2.462-.28.98-.421 2.078-.421 3.266 0 1.187.141 2.283.42 3.257.274.95.683 1.768 1.217 2.433a5.468 5.468 0 0 0 1.985 1.537c.794.367 1.744.553 2.826.553 1.07 0 2.02-.186 2.82-.554a5.425 5.425 0 0 0 1.99-1.536c.535-.665.945-1.483 1.218-2.433.28-.973.421-2.067.421-3.257s-.143-2.288-.422-3.266c-.273-.958-.683-1.785-1.22-2.462a5.419 5.419 0 0 0-1.99-1.559c-.8-.373-1.748-.562-2.817-.562m0 17.132c-1.282 0-2.435-.224-3.429-.667a6.912 6.912 0 0 1-2.541-1.919c-.679-.82-1.198-1.812-1.544-2.949-.34-1.12-.512-2.38-.512-3.748 0-1.367.172-2.633.512-3.764.346-1.149.864-2.148 1.544-2.967a7.083 7.083 0 0 1 2.536-1.934c.994-.455 2.15-.687 3.434-.687 1.272 0 2.424.23 3.425.686a7.097 7.097 0 0 1 2.546 1.935c.68.82 1.198 1.818 1.544 2.967.34 1.132.512 2.398.512 3.764 0 1.367-.172 2.628-.513 3.748-.346 1.137-.864 2.13-1.543 2.95a6.926 6.926 0 0 1-2.552 1.92c-.999.44-2.15.665-3.42.665"/>
    </g>
</svg>
