<svg xmlns="http://www.w3.org/2000/svg" width="36" height="36" viewBox="0 0 36 36">
    <g fill="none" fill-rule="evenodd">
        <circle cx="18" cy="18" r="18" fill="#4AD9BD"/>
        <path fill="#FFF" d="M18.182 23.65l-.001.125a6.548 6.548 0 0 1-.018.338l-.017.174c-.006.05-.012.102-.02.152-.049.351-.13.695-.246 1.031l-.004.001a5.644 5.644 0 0 1-1.595 2.41l-.12.108h-4.586c-.047 0-.093.002-.14.009l.874-.84h3.53a4.807 4.807 0 0 0 1.294-2.089v-.001a4.586 4.586 0 0 0 .186-.887c.018-.167.028-.334.03-.504v-.026l-.002-.125a4.684 4.684 0 0 0-.097-.845 1.411 1.411 0 0 0-.027-.116 3.345 3.345 0 0 0-.093-.345l-.06-.181-.034-.09a4.843 4.843 0 0 0-4.666-3.107l-.005-.004c-.221.007-.44.027-.656.064a51.08 51.08 0 0 1-.732-.686c.19-.053.382-.096.576-.13a.04.04 0 0 1-.007-.006l.166-.018h.01a5.676 5.676 0 0 1 5.923 3.191l.047.103c.047.104.09.21.13.315v.002a5.067 5.067 0 0 1 .144.435 5.038 5.038 0 0 1 .17.825c.005.047.012.094.016.142.02.19.03.382.03.576m-1.042 1.74c-.075.11-.16.22-.249.324l-.01.002c.093-.107.18-.216.26-.326m-1.961.494v.264h-.834v-.264l-.001-.092-.002-.064-.001-.009v-.003l-.008-.117c-.001-.025-.004-.05-.007-.075l-.008-.064a2.16 2.16 0 0 0-.026-.174l-.01-.058a3.149 3.149 0 0 0-.02-.101c-.008-.03-.014-.062-.023-.093-.008-.031-.015-.063-.024-.093a1.508 1.508 0 0 0-.026-.092 1.061 1.061 0 0 0-.03-.092c0-.003 0-.005-.002-.007a3.965 3.965 0 0 0-.134-.356l-.038-.089-.053-.112c-.018-.037-.035-.074-.055-.11-.018-.038-.039-.075-.059-.112a3.528 3.528 0 0 0-.111-.197 7.761 7.761 0 0 0-.475-.704c-.704-.927-1.653-1.798-2.585-2.656l-.044-.04-.267-.246c-.775-.715-1.495-1.404-2.03-2.11l-.002-.004c-.296-.394-.562-.78-.79-1.15l-.19-.307c.004.002.007.002.011.005-.122-.209-.223-.4-.309-.57.238.065.468.152.73.25.145.057.298.114.46.171.202.326.45.695.758 1.101.092.123.192.246.296.369.208.24.437.483.683.728.203.204.417.408.64.617.202.188.409.38.619.572l.228.21c.95.876 1.94 1.814 2.66 2.848.045.065.089.129.13.193.065.097.126.194.184.293.029.05.058.099.085.149.029.048.056.098.082.15.036.066.07.133.102.201l.057.122c.04.087.077.174.112.262l.041.11.03.084c.01.027.02.056.028.083.01.028.018.055.026.082.018.055.034.11.049.166l.021.084c.009.031.016.063.023.095l.02.087a5.545 5.545 0 0 1 .044.25l.015.117.001.01.014.128.009.128c.002.041.004.082.004.123l.002.109m-2.165-12.643l.005-.028a.212.212 0 0 1 .203-.146c.109 0 .2.08.211.187l.002.025.001.024a2.204 2.204 0 0 1 0 .155c-.019.136-.093.297-.218.466a.712.712 0 0 1-.169-.299.968.968 0 0 1-.037-.22 1.205 1.205 0 0 1-.003-.092l.005-.072zm2.88-.96a2.801 2.801 0 0 0-5.195-.013 13.793 13.793 0 0 0-3.064.944 3.954 3.954 0 0 0-.39.179c-.065.033-.129.067-.194.106a5.273 5.273 0 0 0-.491.314l-.015.009a2.91 2.91 0 0 0-.254.229c-.049.048-.09.09-.111.112l-.173.179-.008.008.003.002c.122.07.286.156.48.252a24.056 24.056 0 0 0 .527.252c.25.115.517.232.789.34l.03.013h.002c.094.034.188.07.284.107.142.054.29.11.444.164a5.92 5.92 0 0 0 2.046.356c.455 0 .879-.044 1.262-.134a3.614 3.614 0 0 0 .54-.163 2.94 2.94 0 0 0 .328-.143l.066-.034a2.48 2.48 0 0 0 .21-.12 2.278 2.278 0 0 0 .147-.099l.064-.048.063-.05c.02-.016.04-.031.059-.048l.063-.055.08-.07v-.004a3.16 3.16 0 0 0 .186-.19c.29-.313.597-.765.597-1.269 0-.049 0-.097-.004-.142a1.04 1.04 0 0 0-1.043-1.025c-.51 0-.945.37-1.029.866l-.005.012-.012.123c-.003.029 0 .104 0 .125v.005a2.103 2.103 0 0 0 .015.199c.044.374.19.69.425.934-.486.327-1.175.5-2.012.5-.966 0-1.563-.228-2.194-.466a12.248 12.248 0 0 0-.3-.112 7.435 7.435 0 0 0-.648-.208c.161-.089.329-.17.492-.236l.002-.001.01-.004a12.71 12.71 0 0 1 .866-.345 13.084 13.084 0 0 1 2.521-.627l.001-.005a1.963 1.963 0 0 1 1.94-1.647 1.962 1.962 0 0 1 1.94 1.656v.002c.104.015.206.031.308.05v.003a13.085 13.085 0 0 1 5.698 2.501l.141.11v-.002c.13.102.259.206.385.314.124-.252.262-.498.413-.738a13.968 13.968 0 0 0-6.285-2.967zm-.312-4.12a1.136 1.136 0 0 1 .052-.673l.004-.009c.086-.218.235-.401.424-.53.05.224.034.458-.053.677l-.003.008a1.13 1.13 0 0 1-.424.528zm2.144.443a1.115 1.115 0 0 1-.473.328l-.001-.003a.207.207 0 0 1-.027.013c-.014.005-.027.012-.04.015v.006a1.157 1.157 0 0 1-.897.02 1.123 1.123 0 0 1-.314-.184 1.885 1.885 0 0 0 .73-.891l.004-.009a1.88 1.88 0 0 0-.12-1.64l-.15-.26-.286.089a1.895 1.895 0 0 0-1.212 1.117l-.004.009c-.078.2-.123.406-.13.611-.009.184.009.365.052.537a1.142 1.142 0 0 1-.354-.08 1.146 1.146 0 0 1-.62-.572l.005-.002c-.01-.015-.018-.033-.026-.05a.873.873 0 0 1-.027-.067l-.004.002a1.146 1.146 0 0 1-.094-.504V7.07h-.365l-.384-.017v.016h-.001v.153l-.002 2.34a3.977 3.977 0 0 1 .75-.006l.002-.861a1.935 1.935 0 0 0 1.478.394 1.932 1.932 0 0 0 1.228.702l-.65.624c.192.16.367.34.522.536l1.56-1.498.003-.002c.157-.1.298-.222.42-.365l-.573-.482zm10.21 10.566c0 .057-.001.116-.004.173a5.751 5.751 0 0 1-.026.472 6.936 6.936 0 0 1-.084.621c-.011.059-.022.117-.035.176a5.796 5.796 0 0 1-.088.375 5.524 5.524 0 0 1-.127.43c-.012.035-.024.072-.038.107a7.038 7.038 0 0 1-.752 1.526l-.011.019-.003.003-.534.812-.22-.946-.057-.234a15.118 15.118 0 0 0-.054-.2c-.002-.01-.004-.022-.008-.032-.064-.236-.134-.47-.211-.7l-.048-.142v-.001a13.493 13.493 0 0 0-.1-.28c-.019-.046-.036-.092-.054-.139l-.074-.185a8.15 8.15 0 0 0-.083-.2 11.86 11.86 0 0 0-.357-.77l-.081-.159a12.87 12.87 0 0 0-.63-1.074l.001-.003c-.115-.176-.232-.35-.357-.52.088-.318.202-.627.344-.928.117.149.23.3.34.453l.004-.003.106.157.019.028.107.159c.109.16.215.324.316.488.034.056.068.11.1.166a8.437 8.437 0 0 1 .187.32c.065.117.13.235.19.352v.002c.042.077.082.156.121.234l.038.077.093.192c.023.05.046.098.068.149.024.049.046.097.067.146.014.033.029.064.042.097.031.069.062.14.091.21l.009.021v.001c.076.18.147.362.212.547a11.271 11.271 0 0 1 .195.573 6.189 6.189 0 0 0 .506-1.815c.004-.031.008-.062.01-.092a6.293 6.293 0 0 0-.042-1.654l-.023-.133c-.008-.04-.015-.082-.024-.122a7.614 7.614 0 0 0-.052-.236c-.02-.078-.04-.157-.062-.233a6.269 6.269 0 0 0-1.741-2.86 7.16 7.16 0 0 0-1.71 2.205 7.12 7.12 0 0 0-.498 1.318c-.017.063-.033.126-.047.19a3.204 3.204 0 0 0-.044.201 7.047 7.047 0 0 0-.104.688l-.01.11a4.953 4.953 0 0 0-.022.368l-.002.079-.002.159v.004a5.778 5.778 0 0 0 .022.539 8.545 8.545 0 0 0 2.245 5.442c.462.504.982.952 1.543 1.331l1.126.758h-9.603a1.02 1.02 0 0 0-.155.012l.875-.841h6.311a9.372 9.372 0 0 1-3.175-6.638c-.007-.087-.01-.173-.016-.26a5.476 5.476 0 0 1-.004-.159 4.847 4.847 0 0 1-.003-.184v-.004a5.376 5.376 0 0 1 .01-.388l.005-.092v-.008c.004-.064.008-.128.015-.19a7.726 7.726 0 0 1 .175-1.11c.011-.05.022-.098.036-.146.011-.05.025-.097.038-.145.011-.043.024-.087.037-.13l.019-.061c.01-.038.022-.077.035-.115.006-.017.01-.034.017-.052a7.829 7.829 0 0 1 .428-1.043 7.95 7.95 0 0 1 2.212-2.712l.001-.002.266-.208.26.219a7.132 7.132 0 0 1 2.363 3.896l.04.19.034.19c.01.063.02.126.028.19.009.065.018.13.025.194l.019.194c.004.064.01.129.012.193v.005c.004.05.005.102.007.153l.003.075.002.16"/>
    </g>
</svg>
